<svg xmlns="http://www.w3.org/2000/svg" width="1920" height="1080" viewBox="0 0 1920 1080">
  <!-- Carbon Steel: Data lineage / pipeline diagram -->

  <!-- ── PIPELINE ROWS ── each row = a data processing stage ── -->

  <!-- Stage 1 (top) -->
  <g>
    <rect x="60"   y="160" width="260" height="2" rx="1" fill="rgba(226,232,240,0.22)"/>
    <rect x="380"  y="160" width="340" height="2" rx="1" fill="rgba(226,232,240,0.18)"/>
    <rect x="780"  y="160" width="240" height="2" rx="1" fill="rgba(226,232,240,0.16)"/>
    <rect x="1080" y="160" width="300" height="2" rx="1" fill="rgba(226,232,240,0.14)"/>
    <rect x="1440" y="160" width="420" height="2" rx="1" fill="rgba(226,232,240,0.12)"/>
    <!-- gap connectors -->
    <line x1="320"  y1="160" x2="380"  y2="160" stroke="rgba(226,232,240,0.10)" stroke-width="1" stroke-dasharray="4,4"/>
    <line x1="720"  y1="160" x2="780"  y2="160" stroke="rgba(226,232,240,0.10)" stroke-width="1" stroke-dasharray="4,4"/>
    <line x1="1020" y1="160" x2="1080" y2="160" stroke="rgba(226,232,240,0.10)" stroke-width="1" stroke-dasharray="4,4"/>
    <line x1="1380" y1="160" x2="1440" y2="160" stroke="rgba(226,232,240,0.10)" stroke-width="1" stroke-dasharray="4,4"/>
    <!-- stage nodes -->
    <circle cx="60"   cy="160" r="4"   fill="rgba(226,232,240,0.45)"/>
    <circle cx="320"  cy="160" r="4"   fill="rgba(226,232,240,0.40)"/>
    <circle cx="380"  cy="160" r="4"   fill="rgba(226,232,240,0.40)"/>
    <circle cx="720"  cy="160" r="4"   fill="rgba(226,232,240,0.36)"/>
    <circle cx="780"  cy="160" r="4"   fill="rgba(226,232,240,0.36)"/>
    <circle cx="1020" cy="160" r="4"   fill="rgba(226,232,240,0.32)"/>
    <circle cx="1080" cy="160" r="4"   fill="rgba(226,232,240,0.32)"/>
    <circle cx="1380" cy="160" r="4"   fill="rgba(226,232,240,0.28)"/>
    <circle cx="1440" cy="160" r="4"   fill="rgba(226,232,240,0.28)"/>
    <circle cx="1860" cy="160" r="4"   fill="rgba(226,232,240,0.24)"/>
    <!-- stage label lines -->
    <line x1="60" y1="148" x2="60" y2="140" stroke="rgba(226,232,240,0.18)" stroke-width="1"/>
    <rect x="52" y="132" width="16" height="8" rx="2" fill="none" stroke="rgba(226,232,240,0.12)" stroke-width="0.8"/>
  </g>

  <!-- Stage 2 -->
  <g>
    <rect x="140"  y="300" width="200" height="2" rx="1" fill="rgba(226,232,240,0.20)"/>
    <rect x="400"  y="300" width="280" height="2" rx="1" fill="rgba(226,232,240,0.17)"/>
    <rect x="740"  y="300" width="200" height="2" rx="1" fill="rgba(226,232,240,0.15)"/>
    <rect x="1000" y="300" width="260" height="2" rx="1" fill="rgba(226,232,240,0.13)"/>
    <rect x="1320" y="300" width="380" height="2" rx="1" fill="rgba(226,232,240,0.11)"/>
    <line x1="340"  y1="300" x2="400"  y2="300" stroke="rgba(226,232,240,0.09)" stroke-width="1" stroke-dasharray="4,4"/>
    <line x1="680"  y1="300" x2="740"  y2="300" stroke="rgba(226,232,240,0.09)" stroke-width="1" stroke-dasharray="4,4"/>
    <line x1="940"  y1="300" x2="1000" y2="300" stroke="rgba(226,232,240,0.09)" stroke-width="1" stroke-dasharray="4,4"/>
    <line x1="1260" y1="300" x2="1320" y2="300" stroke="rgba(226,232,240,0.09)" stroke-width="1" stroke-dasharray="4,4"/>
    <circle cx="140"  cy="300" r="3.5" fill="rgba(226,232,240,0.40)"/>
    <circle cx="340"  cy="300" r="3.5" fill="rgba(226,232,240,0.36)"/>
    <circle cx="400"  cy="300" r="3.5" fill="rgba(226,232,240,0.36)"/>
    <circle cx="680"  cy="300" r="3.5" fill="rgba(226,232,240,0.32)"/>
    <circle cx="740"  cy="300" r="3.5" fill="rgba(226,232,240,0.32)"/>
    <circle cx="940"  cy="300" r="3.5" fill="rgba(226,232,240,0.28)"/>
    <circle cx="1000" cy="300" r="3.5" fill="rgba(226,232,240,0.28)"/>
    <circle cx="1260" cy="300" r="3.5" fill="rgba(226,232,240,0.24)"/>
    <circle cx="1320" cy="300" r="3.5" fill="rgba(226,232,240,0.24)"/>
    <circle cx="1700" cy="300" r="3.5" fill="rgba(226,232,240,0.20)"/>
    <!-- vertical lineage from stage 1 -->
    <line x1="320"  y1="162" x2="340"  y2="298" stroke="rgba(226,232,240,0.08)" stroke-width="1" stroke-dasharray="5,6"/>
    <line x1="720"  y1="162" x2="680"  y2="298" stroke="rgba(226,232,240,0.08)" stroke-width="1" stroke-dasharray="5,6"/>
    <line x1="1020" y1="162" x2="940"  y2="298" stroke="rgba(226,232,240,0.08)" stroke-width="1" stroke-dasharray="5,6"/>
    <line x1="1380" y1="162" x2="1260" y2="298" stroke="rgba(226,232,240,0.07)" stroke-width="1" stroke-dasharray="5,6"/>
  </g>

  <!-- Stage 3 -->
  <g>
    <rect x="80"   y="450" width="240" height="2" rx="1" fill="rgba(226,232,240,0.18)"/>
    <rect x="380"  y="450" width="260" height="2" rx="1" fill="rgba(226,232,240,0.15)"/>
    <rect x="700"  y="450" width="220" height="2" rx="1" fill="rgba(226,232,240,0.14)"/>
    <rect x="980"  y="450" width="300" height="2" rx="1" fill="rgba(226,232,240,0.12)"/>
    <rect x="1360" y="450" width="340" height="2" rx="1" fill="rgba(226,232,240,0.10)"/>
    <line x1="320"  y1="450" x2="380"  y2="450" stroke="rgba(226,232,240,0.08)" stroke-width="1" stroke-dasharray="4,4"/>
    <line x1="640"  y1="450" x2="700"  y2="450" stroke="rgba(226,232,240,0.08)" stroke-width="1" stroke-dasharray="4,4"/>
    <line x1="920"  y1="450" x2="980"  y2="450" stroke="rgba(226,232,240,0.08)" stroke-width="1" stroke-dasharray="4,4"/>
    <line x1="1280" y1="450" x2="1360" y2="450" stroke="rgba(226,232,240,0.08)" stroke-width="1" stroke-dasharray="4,4"/>
    <circle cx="80"   cy="450" r="3.5" fill="rgba(226,232,240,0.36)"/>
    <circle cx="320"  cy="450" r="3.5" fill="rgba(226,232,240,0.32)"/>
    <circle cx="380"  cy="450" r="3.5" fill="rgba(226,232,240,0.32)"/>
    <circle cx="640"  cy="450" r="3.5" fill="rgba(226,232,240,0.28)"/>
    <circle cx="700"  cy="450" r="3.5" fill="rgba(226,232,240,0.28)"/>
    <circle cx="920"  cy="450" r="3.5" fill="rgba(226,232,240,0.25)"/>
    <circle cx="980"  cy="450" r="3.5" fill="rgba(226,232,240,0.25)"/>
    <circle cx="1280" cy="450" r="3.5" fill="rgba(226,232,240,0.22)"/>
    <circle cx="1360" cy="450" r="3.5" fill="rgba(226,232,240,0.22)"/>
    <circle cx="1700" cy="450" r="3"   fill="rgba(226,232,240,0.18)"/>
    <!-- vertical lineage -->
    <line x1="340"  y1="302" x2="320"  y2="448" stroke="rgba(226,232,240,0.07)" stroke-width="1" stroke-dasharray="5,6"/>
    <line x1="680"  y1="302" x2="640"  y2="448" stroke="rgba(226,232,240,0.07)" stroke-width="1" stroke-dasharray="5,6"/>
    <line x1="940"  y1="302" x2="920"  y2="448" stroke="rgba(226,232,240,0.07)" stroke-width="1" stroke-dasharray="5,6"/>
    <line x1="1260" y1="302" x2="1280" y2="448" stroke="rgba(226,232,240,0.06)" stroke-width="1" stroke-dasharray="5,6"/>
  </g>

  <!-- Stage 4 -->
  <g>
    <rect x="120"  y="600" width="220" height="2" rx="1" fill="rgba(226,232,240,0.15)"/>
    <rect x="400"  y="600" width="240" height="2" rx="1" fill="rgba(226,232,240,0.13)"/>
    <rect x="700"  y="600" width="260" height="2" rx="1" fill="rgba(226,232,240,0.12)"/>
    <rect x="1020" y="600" width="280" height="2" rx="1" fill="rgba(226,232,240,0.10)"/>
    <rect x="1380" y="600" width="300" height="2" rx="1" fill="rgba(226,232,240,0.09)"/>
    <line x1="340"  y1="600" x2="400"  y2="600" stroke="rgba(226,232,240,0.07)" stroke-width="1" stroke-dasharray="4,4"/>
    <line x1="640"  y1="600" x2="700"  y2="600" stroke="rgba(226,232,240,0.07)" stroke-width="1" stroke-dasharray="4,4"/>
    <line x1="960"  y1="600" x2="1020" y2="600" stroke="rgba(226,232,240,0.07)" stroke-width="1" stroke-dasharray="4,4"/>
    <line x1="1300" y1="600" x2="1380" y2="600" stroke="rgba(226,232,240,0.07)" stroke-width="1" stroke-dasharray="4,4"/>
    <circle cx="120"  cy="600" r="3"   fill="rgba(226,232,240,0.30)"/>
    <circle cx="340"  cy="600" r="3"   fill="rgba(226,232,240,0.27)"/>
    <circle cx="400"  cy="600" r="3"   fill="rgba(226,232,240,0.27)"/>
    <circle cx="640"  cy="600" r="3"   fill="rgba(226,232,240,0.24)"/>
    <circle cx="700"  cy="600" r="3"   fill="rgba(226,232,240,0.24)"/>
    <circle cx="960"  cy="600" r="3"   fill="rgba(226,232,240,0.22)"/>
    <circle cx="1020" cy="600" r="3"   fill="rgba(226,232,240,0.22)"/>
    <circle cx="1300" cy="600" r="3"   fill="rgba(226,232,240,0.20)"/>
    <circle cx="1380" cy="600" r="3"   fill="rgba(226,232,240,0.20)"/>
    <circle cx="1680" cy="600" r="3"   fill="rgba(226,232,240,0.17)"/>
    <!-- vertical lineage -->
    <line x1="320"  y1="452" x2="340"  y2="598" stroke="rgba(226,232,240,0.06)" stroke-width="1" stroke-dasharray="5,6"/>
    <line x1="640"  y1="452" x2="640"  y2="598" stroke="rgba(226,232,240,0.06)" stroke-width="1" stroke-dasharray="5,6"/>
    <line x1="920"  y1="452" x2="960"  y2="598" stroke="rgba(226,232,240,0.06)" stroke-width="1" stroke-dasharray="5,6"/>
    <line x1="1280" y1="452" x2="1300" y2="598" stroke="rgba(226,232,240,0.05)" stroke-width="1" stroke-dasharray="5,6"/>
  </g>

  <!-- Stage 5 (faint, bottom) -->
  <g>
    <rect x="100"  y="760" width="280" height="1.5" rx="1" fill="rgba(226,232,240,0.11)"/>
    <rect x="460"  y="760" width="220" height="1.5" rx="1" fill="rgba(226,232,240,0.09)"/>
    <rect x="760"  y="760" width="300" height="1.5" rx="1" fill="rgba(226,232,240,0.08)"/>
    <rect x="1140" y="760" width="260" height="1.5" rx="1" fill="rgba(226,232,240,0.07)"/>
    <rect x="1500" y="760" width="280" height="1.5" rx="1" fill="rgba(226,232,240,0.07)"/>
    <circle cx="100"  cy="760" r="2.5" fill="rgba(226,232,240,0.24)"/>
    <circle cx="380"  cy="760" r="2.5" fill="rgba(226,232,240,0.22)"/>
    <circle cx="460"  cy="760" r="2.5" fill="rgba(226,232,240,0.22)"/>
    <circle cx="680"  cy="760" r="2.5" fill="rgba(226,232,240,0.20)"/>
    <circle cx="760"  cy="760" r="2.5" fill="rgba(226,232,240,0.20)"/>
    <circle cx="1060" cy="760" r="2.5" fill="rgba(226,232,240,0.18)"/>
    <circle cx="1140" cy="760" r="2.5" fill="rgba(226,232,240,0.18)"/>
    <circle cx="1400" cy="760" r="2.5" fill="rgba(226,232,240,0.16)"/>
    <circle cx="1780" cy="760" r="2.5" fill="rgba(226,232,240,0.14)"/>
    <!-- vertical lineage -->
    <line x1="340"  y1="602" x2="380"  y2="758" stroke="rgba(226,232,240,0.05)" stroke-width="1" stroke-dasharray="5,6"/>
    <line x1="640"  y1="602" x2="680"  y2="758" stroke="rgba(226,232,240,0.05)" stroke-width="1" stroke-dasharray="5,6"/>
    <line x1="960"  y1="602" x2="1060" y2="758" stroke="rgba(226,232,240,0.05)" stroke-width="1" stroke-dasharray="5,6"/>
    <line x1="1300" y1="602" x2="1400" y2="758" stroke="rgba(226,232,240,0.04)" stroke-width="1" stroke-dasharray="5,6"/>
  </g>

  <!-- Stage 6 (very faint, near bottom) -->
  <g>
    <rect x="160"  y="920" width="300" height="1.5" rx="1" fill="rgba(226,232,240,0.08)"/>
    <rect x="540"  y="920" width="240" height="1.5" rx="1" fill="rgba(226,232,240,0.07)"/>
    <rect x="860"  y="920" width="280" height="1.5" rx="1" fill="rgba(226,232,240,0.06)"/>
    <rect x="1240" y="920" width="320" height="1.5" rx="1" fill="rgba(226,232,240,0.06)"/>
    <circle cx="160"  cy="920" r="2"   fill="rgba(226,232,240,0.18)"/>
    <circle cx="460"  cy="920" r="2"   fill="rgba(226,232,240,0.16)"/>
    <circle cx="540"  cy="920" r="2"   fill="rgba(226,232,240,0.16)"/>
    <circle cx="780"  cy="920" r="2"   fill="rgba(226,232,240,0.14)"/>
    <circle cx="860"  cy="920" r="2"   fill="rgba(226,232,240,0.14)"/>
    <circle cx="1140" cy="920" r="2"   fill="rgba(226,232,240,0.12)"/>
    <circle cx="1240" cy="920" r="2"   fill="rgba(226,232,240,0.12)"/>
    <circle cx="1560" cy="920" r="2"   fill="rgba(226,232,240,0.10)"/>
  </g>
</svg>
