<?xml version="1.0" encoding="UTF-8"?>
<svg id="b" data-name="Layer 2" xmlns="http://www.w3.org/2000/svg" width="66.48" height="72" xmlns:xlink="http://www.w3.org/1999/xlink" viewBox="0 0 66.48 72">
  <defs>
    <linearGradient id="d" x1="60.5" y1="54.68" x2="43.56" y2="37.74" gradientUnits="userSpaceOnUse">
      <stop offset=".17" stop-color="#0f4c86"/>
      <stop offset="1" stop-color="#083c5c"/>
    </linearGradient>
    <linearGradient id="e" x1="1.45" y1="50.79" x2="19.23" y2="39.24" xlink:href="#d"/>
    <linearGradient id="f" x1="33.45" y1="15.23" x2="33.45" y2="1.67" gradientUnits="userSpaceOnUse">
      <stop offset="0" stop-color="#083c5c"/>
      <stop offset="1" stop-color="#0f4c86"/>
    </linearGradient>
    <radialGradient id="g" cx="32.99" cy="32.61" fx="32.99" fy="32.61" r="31.41" gradientUnits="userSpaceOnUse">
      <stop offset=".07" stop-color="#005eb8"/>
      <stop offset="1" stop-color="#0f4c86"/>
    </radialGradient>
  </defs>
  <g id="c" data-name="Artwork">
    <g>
      <path d="m64.08,53.27c-3.21-1.08-8.41-1.08-11.61,0-.63.21-1.13.45-1.52.71-.16,0-.24,0-.24,0l-17.05,7.46-1.33,1.62-2.55-3.1-12.42-6.62c2.38-1.08,2.14-2.61-.76-3.59-3.18-1.07-8.33-1.07-11.51,0-3.18,1.07-3.18,2.82,0,3.89,1.99.67,4.75.92,7.32.75,1.51.65,3.01,1.45,4.52,2.54,2.96,2.11,6.03,6.9,7.21,8.85-.11.03-.22.06-.32.09-3.26,1.01-3.99,3.78-.49,5.01,2.17.76,4.99,1.12,7.78,1.12,3.04,0,5.73-.41,7.67-1.05,1.63-.54,5.76-2.46,1.06-4.59-.23-.11-.48-.2-.74-.3,1.11-1.78,2.89-4.19,5.14-5.63,2.37-1.64,4.94-2.57,8.2-3.24,0,0,0,0,.01,0,3.21,1.08,8.41,1.08,11.61,0,3.21-1.08,3.21-2.84,0-3.92Z" fill="#050606" fill-rule="evenodd" opacity=".2"/>
      <path d="m62.51,42.99c-.51-.51-1.07-.92-1.66-1.26-.81-2.32-.95-4.72-.79-7.22.23-3.38.88-6.6,2.57-9.7,0,0-11.35,0-11.35,0,2.54,5.23,3.64,11.45,1.7,16.95-.56.33-1.1.73-1.59,1.22-1.46,1.46-2.21,3.34-2.29,5.25-1.51,1.86-3.46,3.12-5.76,4.1-3.35,1.35-6.71,2.02-10.51,1.41,0,0,5.55,10.82,5.55,10.82,2.82-5.18,7.8-9.42,13.6-9.92,3.09,2.52,7.64,2.33,10.51-.54,3.07-3.07,3.07-8.04,0-11.11Z" fill="url(#d)"/>
      <path d="m15.98,47.83c.43-1.29.52-2.72.16-4.13-.5-1.98-1.77-3.57-3.41-4.53-.64-2.12-.76-4.31-.62-6.57.22-3.38.86-6.6,2.53-9.7,0,0-11.35.04-11.35.04,2.45,4.99,3.58,10.9,1.99,16.23-2.75,1.61-4.23,4.9-3.41,8.14,1,3.94,5,6.32,8.93,5.32.25-.06.5-.14.74-.23,1.93.55,3.62,1.6,5.22,3.01,2.54,2.33,4.47,4.96,5.43,8.54,0,0,7.32-9.71,7.32-9.71-5.24-.1-10.59-2.24-13.55-6.42Z" fill="url(#e)"/>
      <path d="m45.83,10.3c-1.93-1.19-3.63-2.56-5.05-4.28-.66-3.43-3.68-6.02-7.3-6.02s-6.88,2.81-7.37,6.45c-4.08,3.69-9.37,5.89-15.02,4.76,0,0,4.58,9.82,4.58,9.82,1.92-3.74,4.89-5.74,8.52-7.15,1.34-.49,2.68-.89,4.04-1.17,1.35,1.34,3.2,2.17,5.25,2.17,1.6,0,3.08-.51,4.29-1.37,5.53.32,10.85,2.87,13.24,8.21l4.8-9.71c-3.78.97-6.9.1-9.97-1.71Z" fill="url(#f)"/>
      <path d="m58.72,11.48c-4.79-1.59-9.97,1-11.56,5.8-.27.81-.41,1.63-.45,2.44-1.8,3.22-4.99,5.19-8.47,5.16-1.2-1.49-2.82-2.67-4.77-3.31-3.57-1.18-7.31-.3-9.97,1.98-2.2-.09-4.2-1.11-5.33-2.95.66-3.69-.99-7.56-4.42-9.54-4.38-2.53-9.98-1.03-12.5,3.35-2.53,4.38-1.03,9.98,3.35,12.5,3.1,1.79,6.8,1.55,9.6-.29,2.36-.25,4.34,1.14,5.65,3.35.05.08.09.16.13.24-.48,4.28,1.78,8.45,5.68,10.38,1.44,3.38,1.56,6.84.03,10.23-2.4,1.18-4.34,3.27-5.25,6.01-1.8,5.41,1.13,11.25,6.54,13.04,5.41,1.8,11.25-1.13,13.04-6.54,1.69-5.08-.79-10.53-5.57-12.67-1.43-3.29-1.31-6.64.04-9.92,2.53-1.15,4.59-3.29,5.53-6.13.24-.71.39-1.43.46-2.15,1.07-1.27,2.25-2.21,3.49-3,2.39-1.38,4.82-2.01,7.64-1.2.43.23.88.43,1.36.59,4.8,1.59,9.97-1,11.56-5.8,1.59-4.8-1-9.97-5.8-11.57Z" fill="url(#g)"/>
    </g>
  </g>
</svg>